<svg width="50" height="50" viewBox="0 0 50 50" xmlns="http://www.w3.org/2000/svg"><path fill="#4acd8d" d="M31.876 7.983c1.746-2.112 2.921-5.056 2.6-7.983-2.516.102-5.56 1.677-7.364 3.79-1.619 1.87-3.036 4.864-2.652 7.733 2.804.219 5.671-1.425 7.416-3.54m6.292 18.58c.071 7.566 6.638 10.085 6.711 10.118-.055.177-1.048 3.588-3.461 7.111-2.083 3.045-4.246 6.081-7.654 6.143-3.348.061-4.423-1.985-8.252-1.985-3.825 0-5.021 1.923-8.192 2.046-3.287.125-5.791-3.294-7.894-6.327-4.293-6.209-7.575-17.542-3.168-25.192 2.189-3.8 6.1-6.206 10.346-6.267 3.229-.062 6.277 2.173 8.252 2.173 1.973 0 5.677-2.687 9.57-2.293 1.632.068 6.207.658 9.146 4.96-.237.146-5.46 3.188-5.404 9.513"/></svg>