<svg width="400" height="343" viewBox="0 0 400 343" fill="none" xmlns="http://www.w3.org/2000/svg">
<path d="M45.5136 131.925C26.41 98.448 36.963 56.0984 69.0844 37.335C101.206 18.5717 142.732 30.4998 161.836 63.9773L245.693 210.931C264.797 244.409 254.243 286.759 222.121 305.521C190.001 324.284 148.474 312.357 129.371 278.879L45.5136 131.925Z" fill="url(#paint0_linear_16_2)"/>
<path d="M389.07 95.5957C389.07 133.192 359.064 163.67 322.05 163.67C285.036 163.67 255.03 133.192 255.03 95.5957C255.03 57.9988 285.036 27.5207 322.05 27.5207C359.064 27.5207 389.07 57.9988 389.07 95.5957Z" fill="url(#paint1_linear_16_2)"/>
<defs>
<linearGradient id="paint0_linear_16_2" x1="69.0844" y1="37.335" x2="220.586" y2="300.027" gradientUnits="userSpaceOnUse">
<stop stop-color="#1DC071"/>
<stop offset="1" stop-color="#77D9AA"/>
</linearGradient>
<linearGradient id="paint1_linear_16_2" x1="322.05" y1="27.5207" x2="321.721" y2="161.233" gradientUnits="userSpaceOnUse">
<stop stop-color="#1DC071"/>
<stop offset="1" stop-color="#77D9AA"/>
</linearGradient>
</defs>
</svg>
