<svg width="50" height="50" viewBox="0 0 50 50" xmlns="http://www.w3.org/2000/svg"><path data-name="send-Regular" d="M43.598 6.402a5.796 5.796 0 0 0-5.548-1.538l-27.319 6.832a7.979 7.979 0 0 0 .102 15.508l9.679 2.277 2.284 9.686a7.86 7.86 0 0 0 7.708 6.152h.058a7.86 7.86 0 0 0 7.738-6.042l6.835-27.329a5.794 5.794 0 0 0-1.537-5.546Zm-1.496 4.792-6.829 27.314a4.792 4.792 0 0 1-4.744 3.679 4.738 4.738 0 0 1-4.692-3.75l-2.292-9.771 8.809-8.812a1.563 1.563 0 0 0-2.208-2.208l-8.819 8.812-9.771-2.292a4.854 4.854 0 0 1-.065-9.435l27.317-6.833a2.735 2.735 0 0 1 .669-.083 2.708 2.708 0 0 1 2.625 3.377Z" style="fill:#1DC071"/></svg>